PathFileType	4	(X/Y/Z)	32_2_23_p1_0-672.trc
DataRate	CameraRate	NumFrames	NumMarkers	Units	OrigDataRate	OrigDataStartFrame	OrigNumFrames
60.0	60.0	7	27	m	60.0	84	673
Frame#	Time	RHip			RKnee			RAnkle			RBigToe			RSmallToe			RHeel			LHip			LKnee			LAnkle			LBigToe			LSmallToe			LHeel			Neck			Head			Nose			RShoulder			RElbow			RWrist			RThumb			RIndex			RPinky			LShoulder			LElbow			LWrist			LThumb			LIndex			LPinky			
		X1	Y1	Z1	X2	Y2	Z2	X3	Y3	Z3	X4	Y4	Z4	X5	Y5	Z5	X6	Y6	Z6	X7	Y7	Z7	X8	Y8	Z8	X9	Y9	Z9	X10	Y10	Z10	X11	Y11	Z11	X12	Y12	Z12	X13	Y13	Z13	X14	Y14	Z14	X15	Y15	Z15	X16	Y16	Z16	X17	Y17	Z17	X18	Y18	Z18	X19	Y19	Z19	X20	Y20	Z20	X21	Y21	Z21	X22	Y22	Z22	X23	Y23	Z23	X24	Y24	Z24	X25	Y25	Z25	X26	Y26	Z26	X27	Y27	Z27	
84	1.4	0.35069330067594723	0.41657917930486227	1.0718940455896526	0.3386083184397738	0.4689346758032087	1.5203348090931916	0.32379907527628393	0.4827010089654636	1.90108654405935	0.31936308154004156	0.3392756375110744	1.922062516099979	0.37351515301041727	0.34371247030367025	1.9172456908048439	0.3038884185116391	0.567215557650058	1.9926123758659904	0.170820075120364	0.43431801170329376	1.0961654263892577	0.16782307019609988	0.46101801623934596	1.5141482324965507	0.14451772842076735	0.5097862657098732	1.937228872313666	0.15637429053044918	0.3122066074655948	1.9046452457976177	0.10795118331971425	0.36511569028053703	1.921167244388383	0.15505254792160203	0.5318169542865201	1.977107089765094	0.23087782316166605	0.39604518321434823	0.5331048101206598	0.21695434836424896	0.3700092723963481	0.3021834206178756	0.2165428406161577	0.3019155437978563	0.4097301242081805	0.37822505594650163	0.42974872659146435	0.6174205311839789	0.41094691603312805	0.3797999627385638	0.8709589650132361	0.2977681362788756	0.23875895359182034	1.0406287803134482	0.20678340885882565	0.2593465088034384	1.1162336777342268	0.21038827846374075	0.26462747205027287	1.1369354288160847	0.24059560652659903	0.2614234867501849	1.158897740134292	0.08577202389225151	0.4124176099116251	0.6255845082598902	0.04933678475177241	0.3726184120013323	0.8800339666395363	0.187524254753448	0.24807514430498495	1.0423636791260715	0.24165918620124585	0.2578638579959134	1.113119198027301	0.24782650107257034	0.27457688420207105	1.1455799219547598	0.2260344989736	0.297663310504672	1.145642392585045
85	1.4166666666666667	0.35513804731452414	0.40357889701047617	1.0633471270650725	0.334870339699574	0.45712038327448506	1.5147189766890028	0.3236887621054359	0.482748860477635	1.9013117122824235	0.31923930689740626	0.33893757891774456	1.921610437278242	0.37338290408427016	0.34350283703287776	1.9171165139744317	0.3048172791771177	0.5688160275887072	1.9984891628196102	0.17080447273869287	0.4341950061234115	1.0961683796160302	0.1678170352504677	0.46090757237226104	1.5140808476804979	0.14446893713182252	0.5097961727345637	1.9373028722714993	0.15626615296494825	0.31201276399803485	1.904565939134597	0.10683538305648742	0.3654752428928491	1.9254478716853334	0.15494471446092778	0.5319405139927369	1.9770601320610386	0.23086513390033564	0.3961077902015302	0.5330992961871279	0.21690843244748087	0.37003545567690665	0.30216213499039185	0.21656372703634744	0.3019844428144944	0.40973956213658314	0.37823560154194474	0.4298113633901417	0.6174548677589348	0.41096292495307174	0.3799281994984153	0.8711646310072758	0.29778754451137995	0.23844737466234803	1.0406913879105117	0.2092689155512111	0.2687999484860946	1.1198386544191667	0.21297402831963053	0.2745774850406995	1.140688807203273	0.24050791894815263	0.26140615750191926	1.1588787245362393	0.08102456748098792	0.42418345945940716	0.6280045077077421	0.05133717790583186	0.38339558973608956	0.8866119239322794	0.18743029808251654	0.24816736311960474	1.042413585117229	0.24586811120458513	0.2684750320331434	1.11755800685979	0.24737927517731856	0.2750177032662549	1.1496826460684972	0.22254776703290163	0.28873116342739935	1.138945274448923
86	1.4333333333333333	0.35582181464420554	0.4043842344186518	1.0676285465079143	0.334783213752069	0.45680095204756593	1.5146420179155013	0.3237316260279757	0.48269301153422284	1.9012199992458916	0.31502721255172333	0.326665184701737	1.909104272349207	0.3733644318153243	0.3432735178904345	1.9168566178103634	0.3048454152011759	0.5692340306577258	1.9987069185293898	0.17146243114234413	0.4351555652653306	1.1012109367644083	0.16862194655632023	0.46210111410629406	1.5195815941048978	0.14447930179116442	0.5098271634304449	1.937188831976366	0.15646536308957745	0.3120639153103827	1.9046632172552458	0.11214385123558576	0.35182585107105585	1.916004217852213	0.15488874942167646	0.5320819218769054	1.9769810541557575	0.2308850528555268	0.39621408818769666	0.5330871048174658	0.21694820551361937	0.37018271821290577	0.30214280139387695	0.21256085664072458	0.31298733599433554	0.4112494527983042	0.3782326161979977	0.42977550613630344	0.6175399574063792	0.4109819343952185	0.37985477399407325	0.8711115861253391	0.2976828137234828	0.23815028024019266	1.0406336557854603	0.20675831866779248	0.25878965775478663	1.1170278705612988	0.21040352601503576	0.26467632640926403	1.1372811120486621	0.24061974920361218	0.2622246701532748	1.1592272719059735	0.0810158493522403	0.4242133240426473	0.628003315412179	0.05133114306323508	0.38322437922436337	0.8864402637680148	0.18737951184504753	0.24822832842956588	1.0423074552660196	0.2417713316842467	0.2578135549614971	1.1127462896126201	0.2525494110211991	0.26274017698817737	1.1404008555435365	0.22510084743774098	0.2985887097232846	1.1464949442360757
87	1.45	0.35583080823747937	0.40463677992772673	1.0676175070714427	0.33485028682757884	0.4569700728098357	1.514822040080798	0.3228483823168551	0.4814386835855654	1.8957070998769863	0.319323752117699	0.3389454762549115	1.9217664205059581	0.3733330130628421	0.34325303432178744	1.9170189061232656	0.3039362374625433	0.567674575552309	1.9927589501638157	0.1714331672771626	0.43524201863239725	1.1011627948186524	0.16865158486521792	0.46204322249707486	1.519803246810744	0.14446538711078394	0.5096903070241361	1.9373261705507583	0.15646110155405396	0.31210921767878663	1.9046688785864494	0.10695424018734609	0.3651952057408329	1.9254227191068922	0.15485883463674677	0.5316781584669622	1.976958592738695	0.2308916648843776	0.396201918255122	0.5331069873829677	0.21701483578508077	0.37003053961046833	0.3023239834225056	0.2165812069709671	0.3020520573500274	0.4097443509876181	0.3780211510363694	0.4294886593724801	0.6209725701824023	0.41092842342639413	0.3798424106989878	0.8711484447662629	0.2976484598132065	0.23784008798246495	1.0407598980989237	0.20407706228009573	0.24816670043115505	1.113858072777054	0.20773792801915042	0.25409367482284134	1.1334362042333412	0.24079170848826922	0.26230115069055204	1.1593655739855784	0.08100975773314993	0.4242702135943409	0.6280062985224842	0.051346800750089024	0.3835179426536867	0.88656330611606	0.18701633660617556	0.24917322469826128	1.039246395545173	0.2388114655226967	0.25597953915265714	1.1117888469013137	0.24045776118421114	0.26258768833851504	1.1446901330638757	0.22177993302058516	0.28822188389511694	1.142177767432296
88	1.4666666666666666	0.3519180887964696	0.4178470405719486	1.0725361541881027	0.334858493363241	0.4568555156166407	1.5147604799804617	0.3227538611475798	0.48128749702416634	1.8955648570111807	0.319251717411897	0.33887087431886487	1.9213427845658433	0.3733817859842875	0.3436418098784731	1.9169984236733653	0.30376765463299127	0.5670243999898361	1.9924004383222333	0.1708042545358656	0.43432410945868244	1.0961918179418024	0.16902130843837088	0.46054582633337016	1.5235463094019315	0.14332266123917525	0.510108953717317	1.9419309538201173	0.15647531811552176	0.3123478482085169	1.9049414353483416	0.10687247604165696	0.3654125559176549	1.9255822670247031	0.1537083788911492	0.5318841770881375	1.9821627864780194	0.2309123557419235	0.39616795850881115	0.5331114044195365	0.21703353276680526	0.3700164252516022	0.3022805211193673	0.2165589421873168	0.301956749591766	0.4097284002639604	0.3780224840424243	0.42946449662745834	0.6209715226729248	0.4113381529780812	0.378651702950214	0.8744020484409614	0.29771349546066456	0.23796765900504216	1.0407286977388919	0.20454589526971872	0.24416690800587412	1.1177932504847305	0.20772162335747357	0.25206942942015514	1.1408943899884512	0.2454012182203846	0.2632025786514229	1.1592614487028923	0.08099334215701298	0.42433443001686066	0.628023739960415	0.05145405020186607	0.38371499205643395	0.8866589183793758	0.18763165379350624	0.24825455461133086	1.0425398752359931	0.24161496390288556	0.25653168836913487	1.1144233063260849	0.24818175174826468	0.2518522551276841	1.1400469029572555	0.2216407409723446	0.28778082114800746	1.1424432964067184
89	1.4833333333333334	0.3558963611123532	0.404733134811964	1.0672106525603393	0.3348541608260908	0.4571127517948271	1.5147151695832324	0.32276508885401545	0.48135848339895937	1.895632423194009	0.31929586019574746	0.33906045816966107	1.9217388786331606	0.3734091219109341	0.34369299635355105	1.917179101416985	0.30334383776873636	0.5694771914966802	1.9885700451832653	0.17145454182689876	0.43430825050500754	1.0919170270942318	0.16864657907748035	0.46212789528992176	1.5198851150724804	0.1433251253139792	0.5102070218823913	1.9419317798725915	0.15647330222589378	0.31242932070818696	1.9050398331891363	0.10689399550578065	0.36537361029393706	1.925672547905723	0.1537288895044335	0.5320878450397241	1.9822232514788767	0.23092888508208054	0.3962253900016281	0.5331240100868603	0.21702794670184955	0.3700397986541215	0.3022348885774567	0.21656384680036647	0.3020065722794649	0.4097535026009665	0.3780455227973996	0.42941476555930286	0.6210047828619788	0.4110291313661842	0.37976342255816126	0.8710970415557622	0.2972772968542802	0.23821896277921606	1.0440658398611076	0.20183583508190073	0.2339665599123538	1.1141743131194306	0.20513992976924855	0.2419262118280733	1.1372112719063376	0.24474089216345435	0.26375720615577514	1.1624275989674901	0.08106636027652003	0.4242730935648358	0.6280262912906851	0.051470678747333035	0.38372470524208585	0.8866661949247606	0.1831477258277906	0.25941636850342925	1.0468118451346533	0.2298281022031623	0.25671905378177784	1.113692253750614	0.23988992320527136	0.26166837060629705	1.144078181712688	0.2183573296367223	0.2776301092552825	1.138920229552157
90	1.5	0.3558481703933816	0.4046404348249988	1.0675126450681087	0.334883757925608	0.4569860133623906	1.5147437604833145	0.3228052245284324	0.48145160568464745	1.895729531826317	0.31933321216810184	0.3390286216923052	1.9218627872175373	0.3734210761555734	0.3436616703322194	1.9171680231049189	0.3034469152416402	0.5699056853391516	1.9887965544543271	0.17141261801589242	0.43527540083833177	1.1006522327646175	0.1686114405568321	0.4621745526619897	1.5198800344705083	0.14332250353016415	0.5102121924966645	1.941895899578399	0.1565257622886042	0.31246962850451476	1.9050496545397513	0.10698418248895775	0.36514943285007007	1.9254759529453542	0.1537028847682407	0.5321355947088541	1.9822199656982173	0.23385611839805975	0.40659872844579426	0.534722594459545	0.21703798461114152	0.370151092739994	0.30218766080047926	0.21280790754486562	0.30053318821986713	0.40980405074163784	0.3780824494833339	0.4294041428798793	0.6211025466911883	0.4113148865359126	0.3800374516337945	0.8677410011525793	0.29725886859277656	0.238478453434735	1.043927417512213	0.20503587120802227	0.24227872195771658	1.1223699922426258	0.20548772118931408	0.24231153226669913	1.1380469432330156	0.24112418625294016	0.275793266437028	1.1645885307968078	0.08102263154385812	0.42434050169026444	0.6280331690197074	0.05202708120591603	0.38409136902856067	0.8833396926145095	0.18365124000389774	0.2585662572822631	1.050261277084473	0.23722987497165635	0.2767098331882413	1.1234416967632141	0.24288288286711796	0.2721648317507072	1.1490765819887314	0.21777376782588825	0.2762596030190118	1.1465768628587056
